<svg width="1512" height="571" viewBox="0 0 1512 571" fill="none" xmlns="http://www.w3.org/2000/svg">
<rect width="1512" height="571" fill="#5CD85A"/>
<path fill-rule="evenodd" clip-rule="evenodd" d="M0 233L19 239.611C39 246.222 78 258.619 116 290.022C155 320.599 194 371.01 233 408.198C271 446.213 310 471.005 349 446.213C388 420.594 426 346.218 465 352.002C504 358.614 543 446.213 582 439.601C620 433.817 659 332.995 698 295.807C737 258.619 775 283.411 814 314.814C853 346.218 892 383.406 930 395.802C969 408.198 1008 395.802 1047 408.198C1086 420.594 1124 458.609 1163 464.394C1202 471.005 1241 446.213 1279 427.205C1318 408.198 1357 395.802 1396 371.01C1434 346.218 1473 308.203 1493 290.022L1512 271.015V571H1493C1473 571 1434 571 1396 571C1357 571 1318 571 1279 571C1241 571 1202 571 1163 571C1124 571 1086 571 1047 571C1008 571 969 571 930 571C892 571 853 571 814 571C775 571 737 571 698 571C659 571 620 571 582 571C543 571 504 571 465 571C426 571 388 571 349 571C310 571 271 571 233 571C194 571 155 571 116 571C78 571 39 571 19 571H0V233Z" fill="#107869" fill-opacity="0.14"/>
</svg>
