<svg width="408" height="390" viewBox="0 0 408 390" fill="none" xmlns="http://www.w3.org/2000/svg">
<path d="M225.855 195V222.858C225.869 234.391 235.647 243.738 247.712 243.75H284.141C296.206 243.738 305.984 234.391 305.998 222.858V188.036H233.141C229.12 188.041 225.861 191.156 225.855 195ZM247.712 201.965H284.141C288.164 201.965 291.426 205.083 291.426 208.929C291.426 212.775 288.164 215.893 284.141 215.893H269.569C269.569 219.74 266.307 222.858 262.284 222.858C258.26 222.858 254.998 219.74 254.998 215.893H247.712C243.689 215.893 240.427 212.775 240.427 208.929C240.427 205.083 243.689 201.965 247.712 201.965Z" fill="#5CD85A"/>
<path d="M364.283 201.965C356.518 201.965 349.073 199.009 343.594 193.75C338.115 188.491 335.052 181.363 335.084 173.941L335.111 167.14C323.356 167.111 312.341 161.648 305.547 152.477C296.228 150.249 285.442 152.944 270.825 156.683C268.261 157.34 265.614 158.016 262.864 158.693C258.846 159.704 254.71 160.221 250.555 160.23C236.234 159.85 222.69 153.923 213.031 143.809C211.333 141.918 210.821 139.304 211.689 136.954C212.557 134.604 214.672 132.877 217.236 132.425C219.8 131.973 222.421 132.864 224.109 134.763C232.991 144.031 246.398 148.02 259.214 145.21C261.928 144.54 264.536 143.873 267.054 143.227C277.491 140.021 288.335 138.187 299.289 137.776C298.946 135.975 298.753 134.152 298.712 132.322C285.134 131.272 273.267 123.149 267.854 111.199C259.946 120.529 247.909 125.764 235.355 125.333C222.8 124.902 211.187 118.856 203.999 109.008C196.81 118.856 185.197 124.902 172.643 125.333C160.088 125.764 148.052 120.529 140.143 111.199C134.73 123.149 122.864 131.272 109.285 132.322C109.245 134.152 109.052 135.975 108.708 137.776C119.662 138.187 130.507 140.021 140.943 143.227C143.462 143.873 146.069 144.54 148.769 145.206C161.602 148.017 175.024 144.018 183.913 134.736C186.541 131.845 191.118 131.525 194.158 134.02C197.198 136.515 197.559 140.889 194.966 143.809C185.305 153.922 171.76 159.847 157.439 160.227C153.281 160.219 149.14 159.702 145.119 158.69C142.384 158.016 139.737 157.34 137.172 156.683C122.552 152.938 111.776 150.241 102.452 152.476C95.6582 161.647 84.6426 167.111 72.8859 167.14L72.9139 173.941C72.9452 181.363 69.8827 188.491 64.4033 193.75C58.9239 199.009 51.479 201.965 43.7144 201.965C39.6928 201.97 36.4339 205.085 36.4287 208.929V250.715C36.4339 254.559 39.6928 257.674 43.7144 257.679H61.9205C60.3565 249.612 59.4481 242.504 58.9273 236.786H51C46.9763 236.786 43.7144 233.668 43.7144 229.822C43.7144 225.976 46.9763 222.858 51 222.858H65.717C66.026 222.896 66.3317 222.955 66.6322 223.034C67.2382 223.072 67.8362 223.187 68.4099 223.377C68.7368 223.534 69.0504 223.714 69.3477 223.917C70.5565 224.697 71.5663 225.727 72.3026 226.931C72.4896 227.402 72.6227 227.891 72.6997 228.389C72.8288 228.738 72.9266 229.097 72.9918 229.461C74.8844 264.453 89.438 349.772 183.497 386.263C196.668 391.246 211.329 391.246 224.5 386.263C318.559 349.772 333.112 264.453 335.005 229.461C335.073 229.038 335.183 228.622 335.333 228.219C335.402 227.797 335.512 227.382 335.66 226.979C336.141 226.249 336.656 225.538 337.202 224.85C337.77 224.335 338.424 223.913 339.137 223.603C339.266 223.544 339.365 223.448 339.498 223.395C340.425 223.216 341.353 223.037 342.28 222.858H356.997C361.021 222.858 364.283 225.976 364.283 229.822C364.283 233.668 361.021 236.786 356.997 236.786H349.07C348.549 242.504 347.641 249.612 346.077 257.679H364.283C368.305 257.674 371.563 254.559 371.569 250.715V208.929C371.563 205.085 368.305 201.97 364.283 201.965ZM211.284 355.179V362.143C211.284 365.99 208.022 369.108 203.999 369.108C199.975 369.108 196.713 365.99 196.713 362.143V355.179C192.689 355.179 189.427 352.061 189.427 348.215C189.427 344.368 192.689 341.25 196.713 341.25H211.284C215.308 341.25 218.57 344.368 218.57 348.215C218.57 352.061 215.308 355.179 211.284 355.179ZM218.57 327.322H189.427C185.404 327.322 182.142 324.204 182.142 320.358C182.142 316.511 185.404 313.393 189.427 313.393H218.57C222.594 313.393 225.856 316.511 225.856 320.358C225.856 324.204 222.594 327.322 218.57 327.322ZM233.141 306.429H174.856C170.832 306.429 167.57 303.311 167.57 299.465C167.57 295.618 170.832 292.5 174.856 292.5H233.141C237.165 292.5 240.427 295.618 240.427 299.465C240.427 303.311 237.165 306.429 233.141 306.429ZM182.142 271.608C182.142 267.761 185.404 264.643 189.427 264.643H218.57C222.594 264.643 225.856 267.761 225.856 271.608C225.856 275.454 222.594 278.572 218.57 278.572H189.427C185.404 278.572 182.142 275.454 182.142 271.608ZM320.569 222.858C320.546 242.08 304.25 257.656 284.141 257.679H247.713C227.604 257.656 211.308 242.08 211.284 222.858V201.965H196.713V222.858C196.689 242.08 180.394 257.656 160.285 257.679H123.857C103.748 257.656 87.4519 242.08 87.4283 222.858V181.072C87.4283 177.226 90.6902 174.108 94.7139 174.108H174.856C184.088 174.135 192.303 179.713 195.371 188.036H212.627C215.694 179.713 223.909 174.135 233.141 174.108H313.283C317.307 174.108 320.569 177.226 320.569 181.072V222.858Z" fill="#5CD85A"/>
<path d="M174.856 188.036H101.999V222.858C102.012 234.391 111.79 243.738 123.856 243.75H160.284C172.35 243.738 182.128 234.391 182.141 222.858V195C182.136 191.156 178.877 188.041 174.856 188.036ZM160.284 215.893H152.999C152.999 219.74 149.737 222.858 145.713 222.858C141.689 222.858 138.427 219.74 138.427 215.893H123.856C119.832 215.893 116.57 212.775 116.57 208.929C116.57 205.083 119.832 201.965 123.856 201.965H160.284C164.308 201.965 167.57 205.083 167.57 208.929C167.57 212.775 164.308 215.893 160.284 215.893Z" fill="#5CD85A"/>
<path d="M386.533 131.921C397.08 130.365 405.476 122.657 407.526 112.645C409.577 102.634 404.844 92.4679 395.69 87.224C392.935 85.6214 391.609 82.4789 392.431 79.4981C394.655 72.1787 393.117 64.2847 388.285 58.2216C383.453 52.1586 375.9 48.6446 367.927 48.7507C366.988 48.783 366.053 48.8865 365.131 49.0601C362.806 49.4174 360.442 48.6966 358.763 47.1185C357.094 45.5541 356.31 43.32 356.654 41.1097C356.845 40.1845 356.96 39.2465 356.999 38.3042C356.982 24.8491 345.575 13.9455 331.499 13.9292C323.538 13.9393 316.049 17.5389 311.293 23.6412C309.528 25.8635 306.545 26.8644 303.714 26.1846C300.883 25.5047 298.75 23.2753 298.294 20.5195C296.504 9.43736 286.988 0.979785 275.295 0.0789066C263.602 -0.821971 252.792 6.06958 249.169 16.7347C248.265 19.3587 245.824 21.224 242.948 21.4886C240.071 21.7531 237.303 20.3668 235.893 17.9555C229.465 6.87509 217.254 0.000675034 204 0.000675034C190.746 0.000675034 178.535 6.87509 172.107 17.9555C170.697 20.3668 167.929 21.7531 165.052 21.4886C162.176 21.224 159.735 19.3587 158.831 16.7347C155.208 6.06958 144.398 -0.821971 132.705 0.0789066C121.012 0.979785 111.496 9.43736 109.706 20.5195C109.25 23.2753 107.117 25.5047 104.286 26.1846C101.455 26.8644 98.4724 25.8635 96.7074 23.6412C91.9512 17.5389 84.4619 13.9393 76.5011 13.9292C62.425 13.9455 51.0183 24.8491 51.0013 38.3042C51.0351 39.202 51.1434 40.0957 51.325 40.9771C51.6981 43.1992 50.9441 45.4587 49.2938 47.0639C47.6606 48.6648 45.3206 49.4155 43.0077 49.0804C42.0399 48.8975 41.0586 48.7873 40.0728 48.7507C32.1 48.6447 24.5468 52.1586 19.7149 58.2216C14.883 64.2847 13.3449 72.1786 15.5691 79.498C16.3907 82.4788 15.0652 85.6214 12.3105 87.224C3.15621 92.4678 -1.57747 102.634 0.473506 112.645C2.52449 122.656 10.9201 130.365 21.4674 131.921C24.3504 132.357 26.6827 134.396 27.3939 137.102C28.1051 139.808 27.058 142.659 24.7331 144.346C18.3493 148.893 14.5835 156.052 14.5731 163.661C14.5901 177.117 25.9967 188.02 40.0728 188.036C40.4843 188.08 40.8909 188.158 41.2877 188.271C42.0917 188.149 42.9023 188.07 43.7157 188.036C47.6062 188.038 51.3368 186.557 54.0821 183.922C56.8274 181.287 58.3611 177.714 58.3439 173.996L58.287 160.206C58.3189 159.524 58.4586 158.849 58.7014 158.207C58.7366 158.003 58.6801 157.806 58.7352 157.602C59.2175 155.813 60.4239 154.28 62.0887 153.342C63.7534 152.404 65.7401 152.137 67.6111 152.599C69.3267 153.012 71.0893 153.218 72.8583 153.215C84.9241 153.202 94.7021 143.856 94.7152 132.322C94.6857 130.201 94.2952 128.098 93.5591 126.096C92.6876 123.594 93.3692 120.836 95.3199 118.972C97.2706 117.107 100.156 116.455 102.773 117.288C104.867 117.992 107.067 118.365 109.287 118.394C120.546 118.394 131.143 102.7 131.143 90.5364C131.179 90.3012 131.229 90.0681 131.291 89.838C131.221 88.9152 131.143 87.9944 131.143 87.0542C131.143 83.208 134.405 80.0899 138.429 80.0899C142.453 80.0899 145.715 83.208 145.715 87.0542C145.715 100.516 157.131 111.429 171.215 111.429C185.298 111.429 196.714 100.516 196.714 87.0542C196.714 83.208 199.976 80.0899 204 80.0899C208.024 80.0899 211.286 83.208 211.286 87.0542C211.286 100.516 222.702 111.429 236.785 111.429C250.869 111.429 262.285 100.516 262.285 87.0542C262.285 83.208 265.547 80.0899 269.571 80.0899C273.595 80.0899 276.857 83.208 276.857 87.0542C276.857 87.9941 276.779 88.9152 276.709 89.838C276.771 90.0681 276.821 90.3012 276.857 90.5364C276.857 102.7 287.454 118.394 298.713 118.394C300.933 118.365 303.133 117.992 305.227 117.288C307.844 116.455 310.729 117.107 312.68 118.972C314.631 120.836 315.312 123.594 314.441 126.096C313.705 128.098 313.314 130.201 313.285 132.322C313.298 143.856 323.076 153.202 335.142 153.215C336.911 153.218 338.673 153.012 340.389 152.599C342.26 152.137 344.246 152.405 345.911 153.343C347.576 154.281 348.782 155.813 349.265 157.602C349.32 157.806 349.263 158.003 349.299 158.207C349.541 158.849 349.681 159.524 349.713 160.206L349.656 173.996C349.639 177.715 351.173 181.287 353.918 183.922C356.663 186.557 360.394 188.038 364.284 188.036C365.098 188.07 365.908 188.149 366.712 188.271C367.109 188.158 367.516 188.08 367.927 188.036C382.003 188.02 393.41 177.117 393.427 163.661C393.416 156.052 389.651 148.893 383.267 144.346C380.942 142.659 379.895 139.809 380.606 137.102C381.317 134.396 383.65 132.357 386.533 131.921Z" fill="#5CD85A"/>
</svg>
