<svg width="27" height="28" viewBox="0 0 27 28" fill="none" xmlns="http://www.w3.org/2000/svg">
<path d="M13.4964 9.62308C11.0175 9.62308 8.99454 11.6461 8.99454 14.125C8.99454 16.6039 11.0175 18.6269 13.4964 18.6269C15.9752 18.6269 17.9982 16.6039 17.9982 14.125C17.9982 11.6461 15.9752 9.62308 13.4964 9.62308ZM26.9985 14.125C26.9985 12.2607 27.0154 10.4134 26.9107 8.55248C26.806 6.39102 26.3129 4.47273 24.7324 2.89216C23.1485 1.30822 21.2336 0.81851 19.0722 0.713814C17.2079 0.609118 15.3606 0.626005 13.4997 0.626005C11.6355 0.626005 9.78819 0.609118 7.92734 0.713814C5.76592 0.81851 3.84766 1.31159 2.26712 2.89216C0.683203 4.47611 0.193506 6.39102 0.0888122 8.55248C-0.0158816 10.4167 0.00100453 12.2641 0.00100453 14.125C0.00100453 15.9859 -0.0158816 17.8366 0.0888122 19.6975C0.193506 21.859 0.68658 23.7773 2.26712 25.3578C3.85103 26.9418 5.76592 27.4315 7.92734 27.5362C9.79156 27.6409 11.6389 27.624 13.4997 27.624C15.364 27.624 17.2113 27.6409 19.0722 27.5362C21.2336 27.4315 23.1518 26.9384 24.7324 25.3578C26.3163 23.7739 26.806 21.859 26.9107 19.6975C27.0188 17.8366 26.9985 15.9893 26.9985 14.125ZM13.4964 21.0518C9.66323 21.0518 6.56969 17.9582 6.56969 14.125C6.56969 10.2918 9.66323 7.19819 13.4964 7.19819C17.3295 7.19819 20.423 10.2918 20.423 14.125C20.423 17.9582 17.3295 21.0518 13.4964 21.0518ZM20.7067 8.53222C19.8118 8.53222 19.089 7.80948 19.089 6.9145C19.089 6.01952 19.8118 5.29679 20.7067 5.29679C21.6017 5.29679 22.3244 6.01952 22.3244 6.9145C22.3247 7.12702 22.283 7.3375 22.2018 7.53389C22.1206 7.73028 22.0015 7.90873 21.8512 8.059C21.7009 8.20927 21.5225 8.32842 21.3261 8.40962C21.1297 8.49083 20.9192 8.53249 20.7067 8.53222Z" fill="white"/>
</svg>
