<svg width="27" height="24" viewBox="0 0 27 24" fill="none" xmlns="http://www.w3.org/2000/svg">
<path d="M24.1071 0H2.89286C1.29576 0 0 1.13379 0 2.53125V21.0938C0 22.4912 1.29576 23.625 2.89286 23.625H24.1071C25.7042 23.625 27 22.4912 27 21.0938V2.53125C27 1.13379 25.7042 0 24.1071 0ZM21.16 8.37422C21.1721 8.52188 21.1721 8.6748 21.1721 8.82246C21.1721 13.3945 17.1944 18.6627 9.92612 18.6627C7.68415 18.6627 5.60491 18.0932 3.85714 17.1123C4.17656 17.1439 4.48393 17.1545 4.80938 17.1545C6.6596 17.1545 8.35915 16.6061 9.71518 15.6779C7.97946 15.6463 6.52098 14.6496 6.02076 13.2785C6.62946 13.3576 7.1779 13.3576 7.80469 13.2152C5.99665 12.8936 4.64062 11.5014 4.64062 9.81914V9.77695C5.16496 10.0354 5.77969 10.1936 6.42455 10.2146C5.8824 9.8991 5.43796 9.47103 5.13089 8.96862C4.82381 8.46621 4.66367 7.9051 4.66473 7.33535C4.66473 6.69199 4.85759 6.10137 5.20112 5.58984C7.14777 7.68867 10.0708 9.05977 13.3493 9.20742C12.7888 6.86074 14.7958 4.95703 17.2065 4.95703C18.3455 4.95703 19.3701 5.37363 20.0933 6.04863C20.9853 5.90098 21.8411 5.61094 22.6004 5.21543C22.3051 6.01699 21.6844 6.69199 20.8647 7.11914C21.6603 7.04531 22.4317 6.8502 23.1429 6.58125C22.6065 7.27207 21.9315 7.88379 21.16 8.37422Z" fill="white"/>
</svg>
